<?xml version="1.0" standalone="no"?>
<!DOCTYPE svg PUBLIC "-//W3C//DTD SVG 20010904//EN"
 "http://www.w3.org/TR/2001/REC-SVG-20010904/DTD/svg10.dtd">
<svg version="1.0" xmlns="http://www.w3.org/2000/svg"
 width="324.000000pt" height="145.000000pt" viewBox="0 0 324.000000 145.000000"
 preserveAspectRatio="xMidYMid meet">

<g transform="translate(0.000000,145.000000) scale(0.100000,-0.100000)"
fill="#000000" stroke="none">
<path d="M0 1440 c0 -5 7 -7 15 -4 19 8 19 14 0 14 -8 0 -15 -4 -15 -10z"/>
<path d="M3210 1440 c19 -13 30 -13 30 0 0 6 -10 10 -22 10 -19 0 -20 -2 -8
-10z"/>
<path d="M865 1251 c-100 -25 -183 -120 -205 -233 l-7 -38 47 0 c46 0 48 1 54
32 14 69 75 127 159 152 13 4 17 16 17 51 0 49 -3 51 -65 36z"/>
<path d="M960 1217 c0 -45 1 -46 40 -57 21 -6 53 -22 70 -37 34 -28 70 -91 70
-123 0 -17 6 -20 51 -20 l52 0 -6 36 c-9 55 -43 117 -89 162 -47 47 -87 68
-146 78 l-42 7 0 -46z"/>
<path d="M2094 1250 c-96 -22 -187 -127 -208 -237 l-5 -33 47 0 47 0 19 52
c10 28 30 64 45 79 15 15 51 35 79 45 52 19 52 19 52 61 0 47 -7 50 -76 33z"/>
<path d="M2190 1217 c0 -46 1 -46 41 -57 49 -13 125 -86 134 -127 12 -52 13
-53 60 -53 52 0 53 4 29 77 -34 102 -125 183 -222 199 l-42 7 0 -46z"/>
<path d="M2697 1246 c-92 -33 -155 -100 -184 -195 -20 -68 -19 -71 32 -71 44
0 44 1 56 43 14 54 83 122 139 137 39 11 40 12 40 55 0 40 -2 45 -22 45 -13
-1 -40 -7 -61 -14z"/>
<path d="M2810 1217 c0 -43 1 -45 44 -61 55 -21 111 -81 127 -135 12 -41 13
-41 60 -41 l49 0 -6 33 c-23 120 -122 224 -231 242 l-43 7 0 -45z"/>
<path d="M410 1115 l0 -135 50 0 50 0 0 135 0 135 -50 0 -50 0 0 -135z"/>
<path d="M530 1115 l0 -135 50 0 50 0 0 135 0 135 -50 0 -50 0 0 -135z"/>
<path d="M1270 1115 l0 -135 45 0 45 0 0 135 0 135 -45 0 -45 0 0 -135z"/>
<path d="M1390 1115 l0 -135 45 0 45 0 0 135 0 135 -45 0 -45 0 0 -135z"/>
<path d="M1640 1115 l0 -135 45 0 45 0 0 135 0 135 -45 0 -45 0 0 -135z"/>
<path d="M1760 1115 l0 -135 45 0 45 0 0 135 0 135 -45 0 -45 0 0 -135z"/>
<path d="M873 1121 c-45 -21 -93 -82 -93 -118 0 -20 5 -23 41 -23 33 0 46 6
75 36 28 30 34 44 34 80 0 24 -3 44 -7 44 -5 0 -27 -9 -50 -19z"/>
<path d="M960 1092 c0 -42 3 -50 24 -60 13 -6 27 -20 31 -31 5 -18 15 -21 57
-21 42 0 49 3 44 16 -3 9 -6 22 -6 29 0 35 -97 115 -140 115 -5 0 -10 -22 -10
-48z"/>
<path d="M2100 1118 c-50 -26 -77 -59 -86 -105 -6 -33 -6 -33 35 -33 35 0 47
6 82 41 34 34 40 45 37 76 -2 20 -8 38 -13 40 -6 2 -30 -7 -55 -19z"/>
<path d="M2190 1092 c0 -42 3 -50 24 -60 13 -6 27 -20 31 -31 5 -18 15 -21 56
-21 27 0 49 4 49 9 0 44 -56 115 -107 137 -49 21 -53 18 -53 -34z"/>
<path d="M2725 1126 c-50 -23 -105 -94 -105 -137 0 -5 21 -9 48 -9 39 0 49 4
57 23 6 12 20 26 33 32 18 8 22 18 22 57 0 52 -6 56 -55 34z"/>
<path d="M2810 1096 c0 -36 6 -50 34 -80 29 -30 41 -36 76 -36 41 0 42 1 35
28 -11 47 -54 100 -96 116 -22 9 -42 16 -44 16 -3 0 -5 -20 -5 -44z"/>
<path d="M410 825 l0 -125 50 0 50 0 0 125 0 125 -50 0 -50 0 0 -125z"/>
<path d="M530 825 l0 -125 50 0 50 0 0 125 0 125 -50 0 -50 0 0 -125z"/>
<path d="M650 825 l0 -125 50 0 50 0 0 125 0 125 -50 0 -50 0 0 -125z"/>
<path d="M770 825 l0 -125 50 0 50 0 0 125 0 125 -50 0 -50 0 0 -125z"/>
<path d="M1030 825 l0 -125 45 0 45 0 0 125 0 125 -45 0 -45 0 0 -125z"/>
<path d="M1140 825 l0 -125 50 0 50 0 0 125 0 125 -50 0 -50 0 0 -125z"/>
<path d="M1270 941 c0 -5 9 -38 20 -74 17 -55 29 -73 76 -116 55 -50 57 -51
120 -51 l64 0 0 35 c0 30 -3 35 -23 35 -40 0 -111 53 -134 101 -12 24 -24 52
-27 62 -4 13 -16 17 -51 17 -25 0 -45 -4 -45 -9z"/>
<path d="M1396 928 c21 -68 82 -128 131 -128 20 0 23 5 23 43 0 36 -4 46 -25
57 -13 7 -27 21 -31 32 -4 14 -16 18 -55 18 -48 0 -50 -1 -43 -22z"/>
<path d="M1613 915 c-27 -28 -33 -42 -33 -79 l0 -45 32 10 c40 11 86 54 104
96 21 48 18 53 -28 52 -35 0 -49 -7 -75 -34z"/>
<path d="M1747 901 c-20 -58 -83 -117 -134 -127 -30 -6 -33 -10 -33 -40 l0
-34 58 0 c49 0 66 5 99 29 51 37 82 80 99 138 23 76 20 83 -29 83 -42 0 -43
-1 -60 -49z"/>
<path d="M1880 825 l0 -125 50 0 50 0 0 125 0 125 -50 0 -50 0 0 -125z"/>
<path d="M2010 825 l0 -125 45 0 45 0 0 125 0 125 -45 0 -45 0 0 -125z"/>
<path d="M2500 825 l0 -125 45 0 45 0 0 125 0 125 -45 0 -45 0 0 -125z"/>
<path d="M2620 825 l0 -125 50 0 50 0 0 125 0 125 -50 0 -50 0 0 -125z"/>
<path d="M2870 825 l0 -125 45 0 45 0 0 125 0 125 -45 0 -45 0 0 -125z"/>
<path d="M2990 825 l0 -125 50 0 50 0 0 125 0 125 -50 0 -50 0 0 -125z"/>
<path d="M46 633 c21 -120 121 -219 237 -236 l37 -6 0 50 c0 43 -3 49 -20 49
-23 0 -77 25 -96 45 -29 29 -64 90 -64 111 0 22 -4 24 -50 24 l-51 0 7 -37z"/>
<path d="M170 640 c18 -62 61 -104 128 -124 21 -7 22 -4 22 37 0 38 -5 50 -36
81 -30 30 -43 36 -79 36 l-44 0 9 -30z"/>
<path d="M383 635 c-27 -28 -33 -42 -33 -79 l0 -45 32 10 c52 14 118 89 118
134 0 11 -10 15 -42 14 -35 0 -49 -7 -75 -34z"/>
<path d="M526 637 c-12 -62 -102 -147 -156 -147 -17 0 -20 -6 -20 -50 l0 -49
33 5 c50 10 119 42 151 72 35 33 86 137 86 175 0 25 -3 27 -44 27 -42 0 -44
-2 -50 -33z"/>
<path d="M661 629 c28 -123 110 -207 224 -228 l45 -8 0 47 c0 47 -1 48 -36 55
-52 9 -122 77 -135 131 l-11 44 -48 0 -48 0 9 -41z"/>
<path d="M780 654 c0 -52 58 -116 120 -134 l30 -9 0 45 c0 38 -5 50 -35 79
-28 28 -42 35 -75 35 -30 0 -40 -4 -40 -16z"/>
<path d="M993 633 c-27 -29 -33 -43 -33 -80 0 -41 1 -44 23 -37 60 18 127 76
127 109 0 7 3 20 6 29 5 13 -2 16 -42 15 -42 -1 -54 -6 -81 -36z"/>
<path d="M1133 627 c-7 -23 -21 -55 -33 -70 -25 -31 -89 -67 -120 -67 -17 0
-20 -6 -20 -50 l0 -49 33 5 c125 21 219 114 243 239 l6 35 -49 0 -49 0 -11
-43z"/>
<path d="M1460 530 l0 -140 45 0 45 0 0 140 0 140 -45 0 -45 0 0 -140z"/>
<path d="M1580 530 l0 -140 45 0 45 0 0 140 0 140 -45 0 -45 0 0 -140z"/>
<path d="M1886 638 c24 -129 125 -227 249 -240 29 -3 30 -2 30 41 0 43 0 44
-45 57 -60 18 -104 60 -126 123 l-19 51 -47 0 -47 0 5 -32z"/>
<path d="M2010 654 c0 -54 71 -128 130 -136 23 -3 25 0 28 44 3 40 0 47 -18
53 -11 4 -28 17 -36 31 -13 19 -25 24 -60 24 -34 0 -44 -4 -44 -16z"/>
<path d="M2223 634 c-28 -27 -33 -40 -33 -77 l0 -46 33 10 c45 13 78 40 104
85 33 57 30 64 -24 63 -40 -2 -54 -7 -80 -35z"/>
<path d="M2367 634 c-11 -66 -70 -120 -159 -148 -14 -4 -18 -16 -18 -51 0 -51
-8 -49 93 -23 75 18 165 127 182 221 l7 37 -50 0 c-49 0 -49 0 -55 -36z"/>
<path d="M2505 633 c11 -61 66 -152 112 -185 39 -29 145 -62 157 -50 3 3 6 23
6 44 0 28 -5 40 -17 44 -88 27 -139 73 -163 147 -11 36 -13 37 -57 37 l-45 0
7 -37z"/>
<path d="M2620 660 c0 -18 37 -84 57 -102 17 -15 83 -48 98 -48 3 0 5 22 5 49
0 41 -3 51 -21 56 -11 4 -25 18 -31 31 -10 21 -18 24 -60 24 -26 0 -48 -5 -48
-10z"/>
<path d="M2843 635 c-27 -28 -33 -42 -33 -79 l0 -45 32 10 c40 11 86 54 104
96 21 48 18 53 -28 52 -35 0 -49 -7 -75 -34z"/>
<path d="M2977 621 c-21 -59 -81 -117 -131 -127 -35 -6 -36 -7 -36 -54 l0 -47
47 8 c114 22 199 112 227 242 6 27 6 27 -41 27 l-48 0 -18 -49z"/>
<path d="M1134 196 c1 -52 5 -71 16 -74 12 -4 13 -2 3 9 -7 8 -14 42 -16 74
-4 57 -4 57 -3 -9z"/>
<path d="M1290 234 c0 -14 -4 -23 -10 -19 -6 3 -19 3 -30 0 -15 -5 -20 -15
-20 -39 0 -39 21 -60 50 -51 17 6 20 15 20 71 0 35 -2 64 -5 64 -3 0 -5 -12
-5 -26z m-12 -36 c15 -15 15 -41 1 -55 -18 -18 -39 -3 -39 26 0 40 15 52 38
29z"/>
<path d="M1490 240 c0 -13 -7 -20 -18 -20 -26 0 -42 -20 -42 -51 0 -33 19 -50
48 -42 20 5 22 12 22 69 0 35 -2 64 -5 64 -3 0 -5 -9 -5 -20z m-10 -50 c15
-28 -5 -67 -26 -49 -17 14 -18 41 -2 57 15 15 15 16 28 -8z"/>
<path d="M1992 241 c-4 -11 -5 -44 -2 -73 4 -50 5 -51 8 -13 2 22 8 45 13 51
7 8 6 14 -3 16 -10 4 -10 8 1 21 9 12 10 17 2 17 -6 0 -15 -9 -19 -19z"/>
<path d="M2410 235 c-5 -44 2 -91 16 -105 12 -12 12 -10 2 18 -10 26 -10 37 0
52 7 11 8 20 3 20 -5 0 -12 8 -14 18 -4 15 -5 14 -7 -3z"/>
<path d="M2749 236 c-8 -41 3 -105 19 -111 14 -5 15 -4 5 6 -7 7 -13 28 -13
46 0 20 5 33 13 33 8 0 9 3 1 8 -6 4 -13 14 -16 22 -4 12 -6 11 -9 -4z"/>
<path d="M953 213 c-7 -2 -13 -22 -13 -43 0 -30 4 -40 21 -45 12 -4 26 -2 33
5 8 9 7 11 -4 10 -35 -5 -41 0 -38 33 2 27 7 32 26 30 13 -2 21 1 17 7 -7 11
-22 12 -42 3z"/>
<path d="M1035 210 c-4 -6 3 -9 16 -7 12 1 24 -4 26 -10 3 -8 -4 -13 -15 -13
-11 0 -25 -7 -32 -16 -20 -23 8 -47 43 -38 22 5 27 12 27 38 0 18 -5 37 -12
44 -15 15 -45 16 -53 2z m43 -57 c-2 -10 -10 -18 -18 -18 -8 0 -16 8 -18 18
-2 12 3 17 18 17 15 0 20 -5 18 -17z"/>
<path d="M1335 210 c-4 -7 2 -9 18 -5 16 5 26 2 30 -8 4 -10 -4 -17 -24 -21
-25 -5 -30 -10 -27 -28 2 -18 9 -23 36 -23 30 -1 32 1 32 35 0 20 -5 41 -12
48 -15 15 -45 16 -53 2z m49 -49 c9 -15 -23 -36 -36 -23 -5 5 -7 15 -4 21 9
13 33 14 40 2z"/>
<path d="M1592 208 c-17 -17 -15 -63 3 -78 12 -10 20 -10 38 -1 15 8 16 10 3
6 -19 -5 -46 10 -46 26 0 5 14 9 30 9 18 0 30 5 30 13 0 16 -20 37 -35 37 -6
0 -16 -5 -23 -12z m46 -15 c2 -8 -6 -13 -22 -13 -25 0 -33 10 -19 24 10 10 36
3 41 -11z"/>
<path d="M1682 166 c1 -42 2 -45 5 -14 4 39 28 67 43 52 5 -5 10 -27 13 -49 4
-40 4 -40 5 8 1 26 -1 48 -5 49 -5 0 -20 2 -35 3 -27 2 -28 1 -26 -49z"/>
<path d="M1882 166 c1 -42 2 -45 5 -14 4 39 28 67 43 52 5 -5 10 -27 13 -49 4
-40 4 -40 5 8 1 26 -1 48 -5 49 -5 0 -20 2 -35 3 -27 2 -28 1 -26 -49z"/>
<path d="M2040 173 c0 -53 18 -57 22 -5 2 28 7 37 21 36 9 -1 17 2 17 7 0 4
-13 7 -30 6 -28 -2 -30 -4 -30 -44z"/>
<path d="M2124 209 c-4 -7 0 -9 13 -5 12 4 25 1 32 -7 9 -12 5 -16 -20 -21
-25 -5 -30 -10 -27 -28 2 -18 9 -23 36 -23 30 -1 32 1 32 35 0 20 -5 41 -12
48 -15 15 -45 16 -54 1z m50 -48 c9 -15 -23 -36 -36 -23 -5 5 -7 15 -4 21 9
13 33 14 40 2z"/>
<path d="M2225 204 c-11 -12 -14 -25 -10 -43 10 -39 36 -51 65 -30 13 9 12 10
-2 5 -24 -7 -48 3 -48 20 0 9 11 14 30 14 31 0 39 17 18 38 -16 16 -34 15 -53
-4z m45 -9 c11 -13 8 -15 -14 -15 -25 0 -33 10 -19 23 10 11 19 8 33 -8z"/>
<path d="M2327 213 c-15 -15 -6 -42 16 -45 35 -5 28 -33 -8 -31 -28 2 -29 2
-8 -9 30 -15 55 -3 51 24 -2 15 -11 24 -26 26 -28 4 -23 27 6 26 12 0 19 3 16
8 -6 10 -38 11 -47 1z"/>
<path d="M2488 213 c-13 -3 -18 -15 -18 -44 0 -50 18 -51 22 -1 2 28 7 37 21
36 9 -1 17 2 17 7 0 9 -13 10 -42 2z"/>
<path d="M2552 184 c-2 -46 12 -64 46 -61 20 1 22 6 20 52 -1 49 -2 49 -5 8
-7 -68 -49 -67 -56 2 l-4 40 -1 -41z"/>
<path d="M2666 204 c-9 -8 -16 -24 -16 -34 0 -36 49 -65 65 -39 4 6 1 10 -6 8
-34 -4 -40 2 -37 34 2 27 7 32 26 30 13 -2 21 1 17 7 -9 15 -31 12 -49 -6z"/>
<path d="M2812 184 c-2 -46 12 -64 46 -61 20 1 22 6 20 52 -1 47 -2 47 -5 10
-3 -22 -8 -44 -13 -49 -15 -15 -39 13 -43 52 l-4 37 -1 -41z"/>
<path d="M2921 170 l2 -45 6 40 c4 30 10 40 24 39 9 -1 17 2 17 7 0 5 -11 8
-25 7 -23 -2 -25 -6 -24 -48z"/>
<path d="M2995 211 c-3 -6 7 -9 21 -8 38 3 41 -19 4 -27 -26 -5 -31 -10 -28
-28 2 -18 10 -23 36 -24 31 -1 32 0 32 41 0 30 -5 45 -16 49 -23 9 -42 7 -49
-3z m55 -55 c0 -18 -30 -30 -43 -17 -5 5 -6 14 -3 20 10 16 46 13 46 -3z"/>
<path d="M1180 170 c0 -22 5 -40 10 -40 6 0 10 18 10 40 0 22 -4 40 -10 40 -5
0 -10 -18 -10 -40z"/>
<path d="M1833 170 c0 -25 2 -35 4 -22 2 12 2 32 0 45 -2 12 -4 2 -4 -23z"/>
</g>
</svg>
